<svg width="157" height="45" viewBox="0 0 157 45" fill="none" xmlns="http://www.w3.org/2000/svg">
  <style type="text/css">
    #dash {
    stroke: #000;
    stroke-width: 0.4;
    fill: none;
    stroke-dasharray: 200;
    stroke-dashoffset: 100;
    animation: dash 7s linear alternate infinite;
    }


    @keyframes dash {
    from {
    stroke-dashoffset: 200;
    }
    to {
    stroke-dashoffset: 0;
    }
    }
  </style>
<path id="dash" d="M0 0.125C1.33333 0.458333 2.60417 0.708333 3.8125 0.875C5.02083 1.04167 6.08333 1.16667 7 1.25C8.08333 1.375 9.08333 1.41667 10 1.375C11.1667 1.375 12.625 1.27083 14.375 1.0625C16.1667 0.854167 18 0.666667 19.875 0.5C21.75 0.291667 23.5417 0.166667 25.25 0.125C27 0.0416667 28.4167 0.145833 29.5 0.4375C30.5833 0.6875 31.6875 1.08333 32.8125 1.625C33.9792 2.125 35.0417 2.77083 36 3.5625C36.9583 4.3125 37.75 5.20833 38.375 6.25C39 7.25 39.3542 8.39583 39.4375 9.6875C39.3958 11.3125 39.0208 12.8333 38.3125 14.25C37.7292 15.4583 36.75 16.7083 35.375 18C34 19.25 32.0208 20.2083 29.4375 20.875C30.7292 21.0417 31.8333 21.3333 32.75 21.75C33.7083 22.125 34.5208 22.5833 35.1875 23.125C35.8958 23.625 36.4583 24.1875 36.875 24.8125C37.3333 25.4375 37.6875 26.0625 37.9375 26.6875C38.5625 28.1458 38.8542 29.7708 38.8125 31.5625C38.5625 33.8958 38.0833 35.75 37.375 37.125C36.7083 38.5 35.9375 39.5625 35.0625 40.3125C34.1875 41.0625 33.2917 41.5833 32.375 41.875C31.4583 42.1667 30.625 42.3958 29.875 42.5625C29.125 42.7292 28.2083 42.8125 27.125 42.8125C26.0417 42.8125 24.875 42.7917 23.625 42.75C22.4167 42.6667 21.1667 42.6042 19.875 42.5625C18.5833 42.4792 17.3542 42.4792 16.1875 42.5625C15.2292 42.6458 14.0625 42.7292 12.6875 42.8125C11.5208 42.8958 10.0625 43 8.3125 43.125C6.5625 43.2083 4.52083 43.3125 2.1875 43.4375C2.64583 43.1042 3.02083 42.7292 3.3125 42.3125C3.64583 41.8542 3.91667 41.4583 4.125 41.125C4.33333 40.7083 4.52083 40.3125 4.6875 39.9375C4.8125 39.6042 4.91667 38.6875 5 37.1875C5.08333 35.6875 5.14583 33.8958 5.1875 31.8125C5.22917 29.6875 5.25 27.4167 5.25 25C5.29167 22.5417 5.27083 20.1875 5.1875 17.9375C5.14583 15.6458 5.0625 13.625 4.9375 11.875C4.85417 10.0833 4.72917 8.79167 4.5625 8C4.3125 7.125 3.97917 6.22917 3.5625 5.3125C3.22917 4.52083 2.75 3.66667 2.125 2.75C1.54167 1.83333 0.833333 0.958333 0 0.125ZM13.1875 6.5C13.1875 6.66667 13.2083 7.22917 13.25 8.1875C13.2917 9.02083 13.3333 10.3125 13.375 12.0625C13.4583 13.7708 13.5625 16.2083 13.6875 19.375C14.7292 19.8333 15.75 20.0833 16.75 20.125C17.75 20.125 18.6458 20.0833 19.4375 20C20.3542 19.875 21.2292 19.6667 22.0625 19.375C23.1875 18.9167 24.0625 18.1667 24.6875 17.125C25.3542 16.0833 25.7917 15 26 13.875C26.25 12.7083 26.3125 11.625 26.1875 10.625C26.0625 9.58333 25.7917 8.83333 25.375 8.375C24.5833 7.66667 23.6042 7.08333 22.4375 6.625C21.4375 6.25 20.1667 6 18.625 5.875C17.125 5.70833 15.3125 5.91667 13.1875 6.5ZM12.875 36.125C14.4167 36.9167 15.7708 37.4375 16.9375 37.6875C18.1042 37.9375 19.0833 38.0625 19.875 38.0625C20.7917 38.0625 21.5833 37.9375 22.25 37.6875C23.0417 37.3125 23.8125 36.8125 24.5625 36.1875C25.3542 35.5208 25.9375 34.75 26.3125 33.875C26.7292 32.9583 26.8958 31.9583 26.8125 30.875C26.7292 29.75 26.25 28.5208 25.375 27.1875C24.5833 26.2292 23.625 25.4792 22.5 24.9375C21.5 24.4792 20.2292 24.1875 18.6875 24.0625C17.1875 23.9375 15.3333 24.2917 13.125 25.125L12.875 36.125ZM40.75 0.875C42 1.125 43.0625 1.3125 43.9375 1.4375C44.8125 1.5625 45.5417 1.66667 46.125 1.75C46.7917 1.83333 47.3542 1.875 47.8125 1.875C48.2708 1.875 48.8958 1.85417 49.6875 1.8125C50.3958 1.77083 51.2917 1.75 52.375 1.75C53.4583 1.70833 54.8333 1.64583 56.5 1.5625C55.5417 2.22917 54.7708 2.79167 54.1875 3.25C53.6042 3.70833 53.1667 4.10417 52.875 4.4375C52.5 4.8125 52.2708 5.125 52.1875 5.375C52.1042 5.54167 52.0208 6.16667 51.9375 7.25C51.8542 8.29167 51.7708 9.625 51.6875 11.25C51.6458 12.8333 51.6458 14.625 51.6875 16.625C51.7292 18.5833 51.8333 20.5833 52 22.625C52.2083 24.6667 52.5 26.6458 52.875 28.5625C53.25 30.4375 53.75 32.0833 54.375 33.5C55.0417 34.9167 55.8333 36.0208 56.75 36.8125C57.7083 37.6042 58.8542 37.8958 60.1875 37.6875C61.9375 37.4375 63.3542 36.5833 64.4375 35.125C65.5208 33.6667 66.3333 31.8958 66.875 29.8125C67.4583 27.7292 67.8125 25.5 67.9375 23.125C68.1042 20.7083 68.125 18.4583 68 16.375C67.9167 14.25 67.75 12.4167 67.5 10.875C67.25 9.33333 67.0208 8.375 66.8125 8C66.5625 7.58333 66.2292 7.10417 65.8125 6.5625C65.4792 6.10417 65.0417 5.58333 64.5 5C63.9583 4.375 63.3333 3.70833 62.625 3C63.9167 3.04167 65.0833 3.08333 66.125 3.125C67.1667 3.125 68.0417 3.14583 68.75 3.1875C69.5833 3.22917 70.3333 3.27083 71 3.3125C71.6667 3.35417 72.5 3.41667 73.5 3.5C74.3333 3.58333 75.3958 3.66667 76.6875 3.75C78.0208 3.83333 79.6042 3.95833 81.4375 4.125C80.7292 4.29167 80.1458 4.52083 79.6875 4.8125C79.2708 5.10417 78.9375 5.41667 78.6875 5.75C78.3958 6.125 78.1875 6.5 78.0625 6.875C77.9375 7.20833 77.8333 8.20833 77.75 9.875C77.7083 11.5 77.625 13.4792 77.5 15.8125C77.4167 18.1042 77.2708 20.6042 77.0625 23.3125C76.8542 25.9792 76.5208 28.5208 76.0625 30.9375C75.6458 33.3542 75.0833 35.5 74.375 37.375C73.7083 39.25 72.8333 40.5417 71.75 41.25C70.1667 42.2917 68.5 43.0417 66.75 43.5C65 43.9167 63.2292 44.1458 61.4375 44.1875C59.6458 44.1875 57.875 44.0417 56.125 43.75C54.4167 43.4167 52.7708 43.0208 51.1875 42.5625C49.5625 42.0625 48.2083 40.9375 47.125 39.1875C46.0833 37.4375 45.25 35.375 44.625 33C44.0417 30.5833 43.6042 28 43.3125 25.25C43.0625 22.4583 42.8958 19.7708 42.8125 17.1875C42.7708 14.6042 42.7708 12.2708 42.8125 10.1875C42.8958 8.0625 42.9583 6.45833 43 5.375C43 4.83333 42.9167 4.3125 42.75 3.8125C42.625 3.35417 42.3958 2.875 42.0625 2.375C41.7708 1.83333 41.3333 1.33333 40.75 0.875ZM80.75 1.1875C82.4583 1.39583 84.1875 1.54167 85.9375 1.625C87.7292 1.70833 89.3542 1.75 90.8125 1.75C92.5208 1.75 94.1875 1.70833 95.8125 1.625C97.4792 1.58333 99.2292 1.5 101.062 1.375C102.646 1.29167 104.438 1.1875 106.438 1.0625C108.438 0.9375 110.521 0.8125 112.688 0.6875L113.062 6.125C113.062 6.5 113.083 6.97917 113.125 7.5625C113.125 8.0625 113.125 8.6875 113.125 9.4375C113.167 10.1875 113.208 11.0625 113.25 12.0625C111.75 13.3542 110.396 14.5833 109.188 15.75C108.021 16.875 107.021 17.875 106.188 18.75C105.188 19.7917 104.312 20.75 103.562 21.625C102.604 22.75 101.583 24.125 100.5 25.75C99.4167 27.3333 98.3958 28.8958 97.4375 30.4375C96.5208 31.9375 95.7708 33.2917 95.1875 34.5C94.6042 35.6667 94.3542 36.3958 94.4375 36.6875C94.4792 36.8958 94.8958 37.0208 95.6875 37.0625C96.4792 37.0625 97.4375 37.0208 98.5625 36.9375C99.7292 36.8542 101 36.7292 102.375 36.5625C103.792 36.3542 105.104 36.1458 106.312 35.9375C107.562 35.6875 108.667 35.4375 109.625 35.1875C110.583 34.9375 111.208 34.6875 111.5 34.4375C111.875 34.1042 112.292 33.5 112.75 32.625C113.167 31.875 113.625 30.8333 114.125 29.5C114.667 28.125 115.271 26.2917 115.938 24C115.979 25.7083 116 27.1667 116 28.375C116.042 29.5833 116.104 30.6042 116.188 31.4375C116.229 32.3958 116.292 33.1875 116.375 33.8125C116.417 34.4792 116.5 35.2292 116.625 36.0625C116.708 36.7708 116.812 37.6667 116.938 38.75C117.062 39.8333 117.229 41.0417 117.438 42.375C114.438 42 111.917 41.75 109.875 41.625C107.833 41.4583 106.188 41.3542 104.938 41.3125C103.479 41.2708 102.312 41.2708 101.438 41.3125C100.521 41.4375 99.2708 41.625 97.6875 41.875C96.3542 42.0833 94.5833 42.4167 92.375 42.875C90.1667 43.2917 87.3958 43.8542 84.0625 44.5625C83.9792 43.7708 83.8958 43.0833 83.8125 42.5C83.7292 41.9167 83.6458 41.3958 83.5625 40.9375C83.4792 40.4792 83.3958 40.0417 83.3125 39.625C83.2292 39.25 83.125 38.7292 83 38.0625C82.9167 37.4792 82.7708 36.7708 82.5625 35.9375C82.3958 35.0625 82.1875 33.9792 81.9375 32.6875C84.4375 30.1042 86.5 27.9375 88.125 26.1875C89.7917 24.3958 91.125 22.9375 92.125 21.8125C93.2917 20.4792 94.2083 19.4167 94.875 18.625C95.5 17.8333 96.3125 16.875 97.3125 15.75C98.1458 14.7917 99.2292 13.6042 100.562 12.1875C101.896 10.7292 103.5 9 105.375 7C103.458 6.91667 101.667 6.91667 100 7C98.375 7.08333 96.9583 7.20833 95.75 7.375C94.3333 7.54167 93.0208 7.77083 91.8125 8.0625C90.6875 8.39583 89.5417 8.9375 88.375 9.6875C87.375 10.3125 86.2917 11.1875 85.125 12.3125C83.9583 13.4375 82.8542 14.8958 81.8125 16.6875C81.7292 15.3125 81.6667 14.1458 81.625 13.1875C81.5833 12.2292 81.5417 11.4375 81.5 10.8125C81.4583 10.1042 81.4167 9.52083 81.375 9.0625C81.375 8.60417 81.3333 8 81.25 7.25C81.1667 6.625 81.0833 5.83333 81 4.875C80.9167 3.875 80.8333 2.64583 80.75 1.1875ZM119.688 1.1875C121.396 1.39583 123.125 1.54167 124.875 1.625C126.667 1.70833 128.292 1.75 129.75 1.75C131.458 1.75 133.125 1.70833 134.75 1.625C136.417 1.58333 138.167 1.5 140 1.375C141.583 1.29167 143.375 1.1875 145.375 1.0625C147.375 0.9375 149.458 0.8125 151.625 0.6875L152 6.125C152 6.5 152.021 6.97917 152.062 7.5625C152.062 8.0625 152.062 8.6875 152.062 9.4375C152.104 10.1875 152.146 11.0625 152.188 12.0625C150.688 13.3542 149.333 14.5833 148.125 15.75C146.958 16.875 145.958 17.875 145.125 18.75C144.125 19.7917 143.25 20.75 142.5 21.625C141.542 22.75 140.521 24.125 139.438 25.75C138.354 27.3333 137.333 28.8958 136.375 30.4375C135.458 31.9375 134.708 33.2917 134.125 34.5C133.542 35.6667 133.292 36.3958 133.375 36.6875C133.417 36.8958 133.833 37.0208 134.625 37.0625C135.417 37.0625 136.375 37.0208 137.5 36.9375C138.667 36.8542 139.938 36.7292 141.312 36.5625C142.729 36.3542 144.042 36.1458 145.25 35.9375C146.5 35.6875 147.604 35.4375 148.562 35.1875C149.521 34.9375 150.146 34.6875 150.438 34.4375C150.812 34.1042 151.229 33.5 151.688 32.625C152.104 31.875 152.562 30.8333 153.062 29.5C153.604 28.125 154.208 26.2917 154.875 24C154.917 25.7083 154.938 27.1667 154.938 28.375C154.979 29.5833 155.042 30.6042 155.125 31.4375C155.167 32.3958 155.229 33.1875 155.312 33.8125C155.354 34.4792 155.438 35.2292 155.562 36.0625C155.646 36.7708 155.75 37.6667 155.875 38.75C156 39.8333 156.167 41.0417 156.375 42.375C153.375 42 150.854 41.75 148.812 41.625C146.771 41.4583 145.125 41.3542 143.875 41.3125C142.417 41.2708 141.25 41.2708 140.375 41.3125C139.458 41.4375 138.208 41.625 136.625 41.875C135.292 42.0833 133.521 42.4167 131.312 42.875C129.104 43.2917 126.333 43.8542 123 44.5625C122.917 43.7708 122.833 43.0833 122.75 42.5C122.667 41.9167 122.583 41.3958 122.5 40.9375C122.417 40.4792 122.333 40.0417 122.25 39.625C122.167 39.25 122.062 38.7292 121.938 38.0625C121.854 37.4792 121.708 36.7708 121.5 35.9375C121.333 35.0625 121.125 33.9792 120.875 32.6875C123.375 30.1042 125.438 27.9375 127.062 26.1875C128.729 24.3958 130.062 22.9375 131.062 21.8125C132.229 20.4792 133.146 19.4167 133.812 18.625C134.438 17.8333 135.25 16.875 136.25 15.75C137.083 14.7917 138.167 13.6042 139.5 12.1875C140.833 10.7292 142.438 9 144.312 7C142.396 6.91667 140.604 6.91667 138.938 7C137.312 7.08333 135.896 7.20833 134.688 7.375C133.271 7.54167 131.958 7.77083 130.75 8.0625C129.625 8.39583 128.479 8.9375 127.312 9.6875C126.312 10.3125 125.229 11.1875 124.062 12.3125C122.896 13.4375 121.792 14.8958 120.75 16.6875C120.667 15.3125 120.604 14.1458 120.562 13.1875C120.521 12.2292 120.479 11.4375 120.438 10.8125C120.396 10.1042 120.354 9.52083 120.312 9.0625C120.312 8.60417 120.271 8 120.188 7.25C120.104 6.625 120.021 5.83333 119.938 4.875C119.854 3.875 119.771 2.64583 119.688 1.1875Z" fill="black"/>
</svg>
