<svg width="443" height="101" viewBox="0 0 443 101" fill="none" xmlns="http://www.w3.org/2000/svg">


  <style type="text/css">
    #dash {
    stroke: #000;
    stroke-width: 0.4;
    fill: none;
    stroke-dasharray: 200;
    stroke-dashoffset: 100;
    animation: dash 7s linear alternate infinite;
    }


    @keyframes dash {
    from {
    stroke-dashoffset: 200;
    }
    to {
    stroke-dashoffset: 0;
    }
    }
  </style>


  <path
    id="dash"
    d="M20.9375 38.8125C22.3958 38.8125 23.7083 39.0625 24.875 39.5625C26.0833 40.0208 27.1875 40.5417 28.1875 41.125C29.2292 41.7083 30.2083 42.25 31.125 42.75C32.0417 43.2083 32.9792 43.4375 33.9375 43.4375C34.6875 43.3958 35.5417 43.2917 36.5 43.125C37.3333 42.9583 38.2917 42.7083 39.375 42.375C40.5 42 41.75 41.4583 43.125 40.75C41.75 42.0833 40.625 43.2083 39.75 44.125C38.9167 45 38.2708 45.7292 37.8125 46.3125C37.2708 46.9792 36.875 47.5 36.625 47.875C36.375 48.3333 36 49.0208 35.5 49.9375C35.0417 50.7708 34.4167 51.8958 33.625 53.3125C32.8333 54.6875 31.8333 56.5 30.625 58.75C30.625 55.875 30.3333 53.6458 29.75 52.0625C29.2083 50.4792 28.6042 49.2708 27.9375 48.4375C27.1458 47.4792 26.25 46.875 25.25 46.625C24.3333 46.5 23.4167 46.6667 22.5 47.125C21.5833 47.5417 20.6667 48.1667 19.75 49C18.875 49.8333 18.0208 50.8333 17.1875 52C16.3958 53.125 15.6667 54.3125 15 55.5625C14.375 56.8125 13.8542 58.0833 13.4375 59.375C13.0208 60.625 12.75 61.7917 12.625 62.875C12.5 63.8333 12.4792 64.9583 12.5625 66.25C12.6458 67.5 12.8333 68.7917 13.125 70.125C13.4167 71.4167 13.7917 72.6875 14.25 73.9375C14.7083 75.1875 15.2708 76.3125 15.9375 77.3125C16.6458 78.2708 17.4375 79.0625 18.3125 79.6875C19.1875 80.2708 20.1875 80.5417 21.3125 80.5C22.5625 80.4167 23.7917 80.0417 25 79.375C26.0417 78.8333 27.1042 78 28.1875 76.875C29.2708 75.7083 30.2083 74.0625 31 71.9375L40.25 73.625C37.5833 76.875 34.9792 79.3125 32.4375 80.9375C29.9375 82.5625 27.6875 83.7083 25.6875 84.375C23.3542 85.125 21.1458 85.4792 19.0625 85.4375C16.4375 85.1458 13.9792 84.3542 11.6875 83.0625C9.39583 81.7708 7.41667 80.2083 5.75 78.375C4.125 76.5 2.85417 74.4583 1.9375 72.25C1.02083 70.0417 0.625 67.875 0.75 65.75C0.833333 64.3333 1.125 62.6875 1.625 60.8125C2.125 58.8958 2.79167 56.9375 3.625 54.9375C4.5 52.9375 5.54167 50.9792 6.75 49.0625C7.95833 47.1458 9.29167 45.4375 10.75 43.9375C12.2083 42.3958 13.7917 41.1667 15.5 40.25C17.25 39.2917 19.0625 38.8125 20.9375 38.8125ZM41.1875 39.6875C42.3958 39.8958 43.4583 40.0417 44.375 40.125C45.3333 40.2083 46.125 40.2708 46.75 40.3125C47.5 40.3542 48.1458 40.375 48.6875 40.375C49.2292 40.375 50 40.3333 51 40.25C51.8333 40.1667 52.9167 40.0625 54.25 39.9375C55.625 39.8125 57.3125 39.6042 59.3125 39.3125C58.7292 39.4792 58.1875 39.9583 57.6875 40.75C57.2292 41.5 56.8125 42.3125 56.4375 43.1875C55.9792 44.2292 55.5833 45.375 55.25 46.625C54.9583 47.75 54.5833 49.2917 54.125 51.25C53.7083 53.2083 53.2917 55.3333 52.875 57.625C52.5 59.9167 52.2083 62.25 52 64.625C51.7917 66.9583 51.75 69.1042 51.875 71.0625C52.0417 73.0208 52.4375 74.6458 53.0625 75.9375C53.6875 77.1875 54.6458 77.8542 55.9375 77.9375C57.8958 78.1042 59.5208 78.125 60.8125 78C62.1458 77.8333 63.2292 77.6042 64.0625 77.3125C64.8958 77.0208 65.5417 76.6875 66 76.3125C66.4583 75.8958 66.8125 75.5 67.0625 75.125C67.7292 74.1667 68.4167 72.9375 69.125 71.4375C69.8333 69.9375 70.4583 68.5 71 67.125C71.5833 65.75 72.0625 64.5833 72.4375 63.625C72.8125 62.6667 73 62.2083 73 62.25C73 62.3333 72.9792 62.8125 72.9375 63.6875C72.9375 64.5208 72.9167 65.5417 72.875 66.75C72.875 67.9167 72.8542 69.1458 72.8125 70.4375C72.8125 71.7292 72.7917 72.8333 72.75 73.75C72.7083 74.5 72.6667 75.3333 72.625 76.25C72.5833 77.0417 72.5417 77.9792 72.5 79.0625C72.5 80.1458 72.4583 81.3333 72.375 82.625C70.625 82.5 68.9583 82.4167 67.375 82.375C65.7917 82.3333 64.3958 82.3125 63.1875 82.3125C61.7708 82.3125 60.4583 82.3333 59.25 82.375C57.9583 82.4167 56.4583 82.4792 54.75 82.5625C53.2917 82.6458 51.4792 82.75 49.3125 82.875C47.1458 82.9583 44.6458 83.0833 41.8125 83.25C42.1458 82.6667 42.4167 82.125 42.625 81.625C42.875 81.125 43.0625 80.7083 43.1875 80.375C43.3542 79.9583 43.4583 79.6042 43.5 79.3125C43.75 77.9792 43.9583 76.2917 44.125 74.25C44.2917 72.1667 44.4167 69.9583 44.5 67.625C44.625 65.2917 44.6875 62.9167 44.6875 60.5C44.7292 58.0417 44.7292 55.7708 44.6875 53.6875C44.6458 51.6042 44.5625 49.7917 44.4375 48.25C44.3542 46.7083 44.2292 45.6458 44.0625 45.0625C43.8542 44.3958 43.6042 43.7292 43.3125 43.0625C43.0625 42.4792 42.75 41.8958 42.375 41.3125C42.0417 40.6875 41.6458 40.1458 41.1875 39.6875ZM84.4375 42.6875C86.5208 42.8125 88.2708 42.9167 89.6875 43C91.1458 43.0417 92.3542 43.0833 93.3125 43.125C94.3958 43.1667 95.3125 43.1667 96.0625 43.125C96.8125 43.0833 97.8333 42.9792 99.125 42.8125C100.208 42.6875 101.646 42.5 103.438 42.25C105.271 41.9583 107.542 41.5833 110.25 41.125C109.292 42.0833 108.542 42.9583 108 43.75C107.5 44.5 107.104 45.1458 106.812 45.6875C106.479 46.3542 106.25 46.9167 106.125 47.375C106.042 47.7917 106.125 48.8333 106.375 50.5C106.625 52.1667 106.979 54.1458 107.438 56.4375C107.896 58.6875 108.396 61.1042 108.938 63.6875C109.479 66.2292 110.021 68.625 110.562 70.875C111.104 73.0833 111.583 74.9792 112 76.5625C112.458 78.1042 112.792 79.0208 113 79.3125C113.625 80.1875 114.021 80.7708 114.188 81.0625C114.354 81.3125 114.646 81.5417 115.062 81.75C115.229 81.8333 115.5 81.9583 115.875 82.125C116.208 82.2917 116.646 82.5 117.188 82.75C117.771 83 118.5 83.2917 119.375 83.625C117.75 83.7083 116.354 83.7708 115.188 83.8125C114.021 83.8125 113.062 83.8333 112.312 83.875C111.438 83.9167 110.688 83.9583 110.062 84C109.438 84 108.688 84.0417 107.812 84.125C107.062 84.2083 106.083 84.2917 104.875 84.375C103.708 84.4583 102.333 84.5417 100.75 84.625C101.583 84.0417 102.25 83.5208 102.75 83.0625C103.292 82.5625 103.708 82.1458 104 81.8125C104.333 81.3958 104.562 81.0208 104.688 80.6875C104.771 80.3125 104.833 79.75 104.875 79C104.917 78.3333 104.917 77.4583 104.875 76.375C104.833 75.25 104.729 73.7917 104.562 72L88.125 73.6875C87.7083 74.3958 87.3958 75.0208 87.1875 75.5625C86.9792 76.0625 86.8333 76.5 86.75 76.875C86.625 77.3333 86.5833 77.7083 86.625 78C86.7083 78.3333 86.8542 78.7292 87.0625 79.1875C87.2708 79.6042 87.5625 80.1042 87.9375 80.6875C88.3542 81.2292 88.9583 81.875 89.75 82.625C88.7083 82.5833 87.6458 82.5625 86.5625 82.5625C85.4792 82.5625 84.4792 82.5833 83.5625 82.625C82.4792 82.6667 81.4167 82.7083 80.375 82.75C79.3333 82.7917 78.1458 82.8542 76.8125 82.9375C75.6875 83.0208 74.375 83.125 72.875 83.25C71.3333 83.3333 69.6875 83.4583 67.9375 83.625C69.0208 83.125 69.9375 82.625 70.6875 82.125C71.4375 81.5833 72.0625 81.0833 72.5625 80.625C73.1458 80.125 73.6458 79.6458 74.0625 79.1875C74.3542 78.7708 74.9375 77.8125 75.8125 76.3125C76.6875 74.7708 77.6667 72.9583 78.75 70.875C79.875 68.7917 81.0417 66.5625 82.25 64.1875C83.5 61.8125 84.625 59.5833 85.625 57.5C86.625 55.375 87.4375 53.5417 88.0625 52C88.6875 50.4583 89 49.4583 89 49C88.9167 48.4583 88.7083 47.8542 88.375 47.1875C88.0833 46.6042 87.625 45.9375 87 45.1875C86.4167 44.4375 85.5625 43.6042 84.4375 42.6875ZM103.812 67.375C103.562 65.9167 103.333 64.6667 103.125 63.625C102.917 62.5417 102.75 61.6458 102.625 60.9375C102.458 60.1042 102.333 59.375 102.25 58.75C102.125 58.1667 101.979 57.4167 101.812 56.5C101.646 55.7083 101.438 54.7292 101.188 53.5625C100.979 52.3542 100.708 50.9167 100.375 49.25C98 54 96.1458 57.6875 94.8125 60.3125C93.5208 62.8958 92.5833 64.7917 92 66C91.2917 67.4167 90.8958 68.25 90.8125 68.5L103.812 67.375ZM156.625 39.25C156.042 40.5833 155.521 41.75 155.062 42.75C154.604 43.75 154.208 44.6042 153.875 45.3125C153.5 46.1042 153.188 46.8125 152.938 47.4375C152.729 47.8958 152.458 48.5208 152.125 49.3125C151.792 50.0208 151.375 50.9583 150.875 52.125C150.417 53.25 149.812 54.7083 149.062 56.5C148.688 54.9583 148.229 53.6042 147.688 52.4375C147.146 51.2708 146.562 50.25 145.938 49.375C145.312 48.5 144.646 47.7917 143.938 47.25C143.271 46.6667 142.604 46.1875 141.938 45.8125C140.396 44.9792 138.771 44.5208 137.062 44.4375C134.812 44.5625 133.042 44.9375 131.75 45.5625C130.5 46.1458 129.583 46.8333 129 47.625C128.417 48.375 128.104 49.1667 128.062 50C128.021 50.7917 128.125 51.4583 128.375 52C128.583 52.5 129.312 53.0833 130.562 53.75C131.854 54.4167 133.396 55.1875 135.188 56.0625C137.021 56.8958 138.979 57.8542 141.062 58.9375C143.146 59.9792 145.062 61.1458 146.812 62.4375C148.604 63.6875 150.104 65.0625 151.312 66.5625C152.562 68.0208 153.25 69.5833 153.375 71.25C153.5 73.375 153.479 75.2917 153.312 77C153.146 78.7083 152.562 80.1667 151.562 81.375C150.562 82.5833 149 83.5417 146.875 84.25C144.792 84.9583 141.896 85.3958 138.188 85.5625C134.354 85.7292 131.208 85.5208 128.75 84.9375C126.292 84.3542 124.292 83.5625 122.75 82.5625C121.25 81.5625 120.125 80.4583 119.375 79.25C118.667 78.0417 118.146 76.8958 117.812 75.8125C117.479 74.6875 117.25 73.7292 117.125 72.9375C117 72.1042 116.792 71.6042 116.5 71.4375C116.167 71.2292 115.833 71.0417 115.5 70.875C115.208 70.7083 114.896 70.5625 114.562 70.4375C114.229 70.2708 113.896 70.125 113.562 70L131.75 67.0625C130.708 67.8958 129.896 68.6667 129.312 69.375C128.771 70.0833 128.354 70.7083 128.062 71.25C127.729 71.875 127.5 72.4583 127.375 73C127.292 73.5833 127.479 74.3125 127.938 75.1875C128.396 76.0625 129.021 76.9167 129.812 77.75C130.646 78.5417 131.604 79.2083 132.688 79.75C133.771 80.2917 134.896 80.5208 136.062 80.4375C137.521 80.3125 138.708 79.9583 139.625 79.375C140.542 78.75 141.229 77.9792 141.688 77.0625C142.188 76.1458 142.479 75.1458 142.562 74.0625C142.646 72.9792 142.542 71.9167 142.25 70.875C142 69.7917 141.583 68.7917 141 67.875C140.417 66.9167 139.729 66.125 138.938 65.5C138.229 65 137.125 64.5208 135.625 64.0625C134.167 63.6042 132.521 63.1042 130.688 62.5625C128.896 62.0208 127.042 61.3958 125.125 60.6875C123.25 59.9792 121.542 59.1042 120 58.0625C118.5 57.0208 117.292 55.7917 116.375 54.375C115.5 52.9583 115.167 51.25 115.375 49.25C115.542 47.5417 116.083 46.125 117 45C117.958 43.8333 119.146 42.9167 120.562 42.25C122.021 41.5417 123.625 41.0208 125.375 40.6875C127.167 40.3542 128.979 40.1667 130.812 40.125C132.688 40.0417 134.521 40.0625 136.312 40.1875C138.146 40.3125 139.792 40.4583 141.25 40.625C142.708 40.7917 143.938 40.9583 144.938 41.125C145.979 41.25 146.625 41.3333 146.875 41.375C147.958 41.4583 149.042 41.4375 150.125 41.3125C151.083 41.2292 152.125 41.0417 153.25 40.75C154.417 40.4167 155.542 39.9167 156.625 39.25ZM196.812 39.25C196.229 40.5833 195.708 41.75 195.25 42.75C194.792 43.75 194.396 44.6042 194.062 45.3125C193.688 46.1042 193.375 46.8125 193.125 47.4375C192.917 47.8958 192.646 48.5208 192.312 49.3125C191.979 50.0208 191.562 50.9583 191.062 52.125C190.604 53.25 190 54.7083 189.25 56.5C188.875 54.9583 188.417 53.6042 187.875 52.4375C187.333 51.2708 186.75 50.25 186.125 49.375C185.5 48.5 184.833 47.7917 184.125 47.25C183.458 46.6667 182.792 46.1875 182.125 45.8125C180.583 44.9792 178.958 44.5208 177.25 44.4375C175 44.5625 173.229 44.9375 171.938 45.5625C170.688 46.1458 169.771 46.8333 169.188 47.625C168.604 48.375 168.292 49.1667 168.25 50C168.208 50.7917 168.312 51.4583 168.562 52C168.771 52.5 169.5 53.0833 170.75 53.75C172.042 54.4167 173.583 55.1875 175.375 56.0625C177.208 56.8958 179.167 57.8542 181.25 58.9375C183.333 59.9792 185.25 61.1458 187 62.4375C188.792 63.6875 190.292 65.0625 191.5 66.5625C192.75 68.0208 193.438 69.5833 193.562 71.25C193.688 73.375 193.667 75.2917 193.5 77C193.333 78.7083 192.75 80.1667 191.75 81.375C190.75 82.5833 189.188 83.5417 187.062 84.25C184.979 84.9583 182.083 85.3958 178.375 85.5625C174.542 85.7292 171.396 85.5208 168.938 84.9375C166.479 84.3542 164.479 83.5625 162.938 82.5625C161.438 81.5625 160.312 80.4583 159.562 79.25C158.854 78.0417 158.333 76.8958 158 75.8125C157.667 74.6875 157.438 73.7292 157.312 72.9375C157.188 72.1042 156.979 71.6042 156.688 71.4375C156.354 71.2292 156.021 71.0417 155.688 70.875C155.396 70.7083 155.083 70.5625 154.75 70.4375C154.417 70.2708 154.083 70.125 153.75 70L171.938 67.0625C170.896 67.8958 170.083 68.6667 169.5 69.375C168.958 70.0833 168.542 70.7083 168.25 71.25C167.917 71.875 167.688 72.4583 167.562 73C167.479 73.5833 167.667 74.3125 168.125 75.1875C168.583 76.0625 169.208 76.9167 170 77.75C170.833 78.5417 171.792 79.2083 172.875 79.75C173.958 80.2917 175.083 80.5208 176.25 80.4375C177.708 80.3125 178.896 79.9583 179.812 79.375C180.729 78.75 181.417 77.9792 181.875 77.0625C182.375 76.1458 182.667 75.1458 182.75 74.0625C182.833 72.9792 182.729 71.9167 182.438 70.875C182.188 69.7917 181.771 68.7917 181.188 67.875C180.604 66.9167 179.917 66.125 179.125 65.5C178.417 65 177.312 64.5208 175.812 64.0625C174.354 63.6042 172.708 63.1042 170.875 62.5625C169.083 62.0208 167.229 61.3958 165.312 60.6875C163.438 59.9792 161.729 59.1042 160.188 58.0625C158.688 57.0208 157.479 55.7917 156.562 54.375C155.688 52.9583 155.354 51.25 155.562 49.25C155.729 47.5417 156.271 46.125 157.188 45C158.146 43.8333 159.333 42.9167 160.75 42.25C162.208 41.5417 163.812 41.0208 165.562 40.6875C167.354 40.3542 169.167 40.1667 171 40.125C172.875 40.0417 174.708 40.0625 176.5 40.1875C178.333 40.3125 179.979 40.4583 181.438 40.625C182.896 40.7917 184.125 40.9583 185.125 41.125C186.167 41.25 186.812 41.3333 187.062 41.375C188.146 41.4583 189.229 41.4375 190.312 41.3125C191.271 41.2292 192.312 41.0417 193.438 40.75C194.604 40.4167 195.729 39.9167 196.812 39.25ZM194.25 39.375C195.583 39.5833 196.792 39.7708 197.875 39.9375C198.958 40.0625 199.896 40.1667 200.688 40.25C201.604 40.375 202.417 40.4792 203.125 40.5625C204 40.6875 205.312 40.5417 207.062 40.125C208.812 39.6667 210.729 39.25 212.812 38.875C214.938 38.4583 217.104 38.2292 219.312 38.1875C221.521 38.1042 223.542 38.5 225.375 39.375C227.208 40.25 228.708 41.125 229.875 42C231.042 42.875 231.958 43.8125 232.625 44.8125C233.333 45.7708 233.833 46.7917 234.125 47.875C234.417 48.9583 234.583 50.1458 234.625 51.4375C234.583 53.3542 234.125 55.2083 233.25 57C232.875 57.75 232.375 58.5417 231.75 59.375C231.167 60.1667 230.438 60.9375 229.562 61.6875C228.688 62.4375 227.646 63.1458 226.438 63.8125C225.271 64.4792 223.896 65.0625 222.312 65.5625C223.854 66.0208 225.125 66.5625 226.125 67.1875C227.167 67.8125 228 68.3958 228.625 68.9375C229.375 69.6042 229.938 70.25 230.312 70.875C230.771 71.75 231.083 72.5 231.25 73.125C231.417 73.75 231.521 74.3542 231.562 74.9375C231.646 75.4792 231.75 76.0417 231.875 76.625C232 77.2083 232.271 77.875 232.688 78.625C233.021 79.2083 233.417 79.8125 233.875 80.4375C234.292 80.9792 234.771 81.5625 235.312 82.1875C235.896 82.8125 236.604 83.4167 237.438 84C236.271 84.0417 235.188 84.0625 234.188 84.0625C233.229 84.0625 232.396 84.0625 231.688 84.0625C230.854 84.0625 230.062 84.0417 229.312 84C228.562 83.9583 227.625 83.9375 226.5 83.9375C225.542 83.9375 224.312 83.9375 222.812 83.9375C221.354 83.9375 219.583 83.9583 217.5 84C218.417 83.2917 219.167 82.5833 219.75 81.875C220.333 81.1667 220.792 80.5208 221.125 79.9375C221.5 79.2708 221.771 78.625 221.938 78C222.146 76.875 222.167 75.7083 222 74.5C221.875 73.4583 221.542 72.3125 221 71.0625C220.458 69.7708 219.583 68.4792 218.375 67.1875C217.167 67.3958 216.146 67.5625 215.312 67.6875C214.521 67.7708 213.833 67.8542 213.25 67.9375C212.583 68.0208 212.042 68.0833 211.625 68.125C211.25 68.1667 210.833 68.2083 210.375 68.25C210 68.2917 209.583 68.3542 209.125 68.4375C208.708 68.4792 208.312 68.5417 207.938 68.625C207.854 70.4167 207.854 71.9792 207.938 73.3125C208.021 74.6042 208.125 75.6875 208.25 76.5625C208.417 77.6042 208.604 78.5 208.812 79.25C209.021 80 209.312 80.7292 209.688 81.4375C209.979 82.0208 210.354 82.6458 210.812 83.3125C211.271 83.9375 211.792 84.4583 212.375 84.875C211.292 84.875 210.25 84.875 209.25 84.875C208.292 84.875 207.417 84.8542 206.625 84.8125C205.708 84.8125 204.833 84.7917 204 84.75C203.167 84.7083 202.229 84.6875 201.188 84.6875C200.312 84.6875 199.271 84.6875 198.062 84.6875C196.896 84.6875 195.625 84.7083 194.25 84.75C195.333 83.625 196.188 82.6667 196.812 81.875C197.438 81.0833 197.917 80.4167 198.25 79.875C198.625 79.2917 198.854 78.7917 198.938 78.375C199.021 77.7083 199.083 76.5208 199.125 74.8125C199.208 73.0625 199.271 71.0625 199.312 68.8125C199.354 66.5625 199.375 64.2083 199.375 61.75C199.375 59.2917 199.354 57 199.312 54.875C199.271 52.7083 199.229 50.8542 199.188 49.3125C199.146 47.7708 199.104 46.7917 199.062 46.375C198.938 45.625 198.667 44.875 198.25 44.125C197.917 43.4583 197.438 42.7083 196.812 41.875C196.188 41.0417 195.333 40.2083 194.25 39.375ZM217.875 61.375C218.292 61.125 218.646 60.875 218.938 60.625C219.229 60.375 219.479 59.9792 219.688 59.4375C219.896 58.8542 220.062 58.0417 220.188 57C220.354 55.9583 220.542 54.5417 220.75 52.75C220.917 50.9583 220.792 49.4792 220.375 48.3125C220 47.1458 219.479 46.2292 218.812 45.5625C218.188 44.8542 217.479 44.375 216.688 44.125C215.938 43.8333 215.271 43.6875 214.688 43.6875C213.521 43.6875 212.375 44.0417 211.25 44.75C210.125 45.4583 209.271 46.4167 208.688 47.625C208.479 48.1667 208.292 49.0625 208.125 50.3125C208 51.3958 207.917 52.8958 207.875 54.8125C207.833 56.7292 207.896 59.25 208.062 62.375C209.646 62.625 211.042 62.7292 212.25 62.6875C213.458 62.6042 214.479 62.4583 215.312 62.25C216.312 62.0417 217.167 61.75 217.875 61.375ZM259.625 37.875C261.875 37.9583 264.146 38.375 266.438 39.125C268.771 39.8333 270.917 41 272.875 42.625C274.833 44.2083 276.5 46.2708 277.875 48.8125C279.25 51.3125 280.104 54.375 280.438 58C280.729 60.9583 280.354 63.8958 279.312 66.8125C278.312 69.6875 276.917 72.3333 275.125 74.75C273.333 77.1667 271.271 79.2292 268.938 80.9375C266.604 82.6042 264.271 83.7083 261.938 84.25C260.521 84.5833 258.958 84.625 257.25 84.375C255.583 84.0833 253.875 83.5625 252.125 82.8125C250.417 82.0208 248.729 81.0208 247.062 79.8125C245.438 78.6042 243.958 77.2292 242.625 75.6875C241.292 74.1042 240.167 72.3958 239.25 70.5625C238.375 68.7292 237.833 66.8125 237.625 64.8125C237.417 63.1458 237.396 61.3125 237.562 59.3125C237.771 57.2708 238.167 55.25 238.75 53.25C239.375 51.2083 240.229 49.25 241.312 47.375C242.438 45.4583 243.854 43.7917 245.562 42.375C247.271 40.9167 249.271 39.7917 251.562 39C253.896 38.1667 256.583 37.7917 259.625 37.875ZM248.438 63.1875C247.854 67.6458 248.271 71.2292 249.688 73.9375C251.146 76.6458 253.333 78.2917 256.25 78.875C257.667 79.1667 259.021 78.875 260.312 78C261.646 77.0833 262.854 75.7708 263.938 74.0625C265.021 72.3542 265.958 70.3542 266.75 68.0625C267.542 65.7708 268.125 63.375 268.5 60.875C268.875 58.375 268.896 56.125 268.562 54.125C268.271 52.0833 267.75 50.3542 267 48.9375C266.25 47.4792 265.333 46.3542 264.25 45.5625C263.208 44.7708 262.125 44.3333 261 44.25C259.042 44.125 257.333 44.6458 255.875 45.8125C254.417 46.9375 253.188 48.4167 252.188 50.25C251.188 52.0833 250.375 54.1458 249.75 56.4375C249.167 58.7292 248.729 60.9792 248.438 63.1875ZM305.25 37.875C307.5 37.9583 309.771 38.375 312.062 39.125C314.396 39.8333 316.542 41 318.5 42.625C320.458 44.2083 322.125 46.2708 323.5 48.8125C324.875 51.3125 325.729 54.375 326.062 58C326.354 60.9583 325.979 63.8958 324.938 66.8125C323.938 69.6875 322.542 72.3333 320.75 74.75C318.958 77.1667 316.896 79.2292 314.562 80.9375C312.229 82.6042 309.896 83.7083 307.562 84.25C306.146 84.5833 304.583 84.625 302.875 84.375C301.208 84.0833 299.5 83.5625 297.75 82.8125C296.042 82.0208 294.354 81.0208 292.688 79.8125C291.062 78.6042 289.583 77.2292 288.25 75.6875C286.917 74.1042 285.792 72.3958 284.875 70.5625C284 68.7292 283.458 66.8125 283.25 64.8125C283.042 63.1458 283.021 61.3125 283.188 59.3125C283.396 57.2708 283.792 55.25 284.375 53.25C285 51.2083 285.854 49.25 286.938 47.375C288.062 45.4583 289.479 43.7917 291.188 42.375C292.896 40.9167 294.896 39.7917 297.188 39C299.521 38.1667 302.208 37.7917 305.25 37.875ZM294.062 63.1875C293.479 67.6458 293.896 71.2292 295.312 73.9375C296.771 76.6458 298.958 78.2917 301.875 78.875C303.292 79.1667 304.646 78.875 305.938 78C307.271 77.0833 308.479 75.7708 309.562 74.0625C310.646 72.3542 311.583 70.3542 312.375 68.0625C313.167 65.7708 313.75 63.375 314.125 60.875C314.5 58.375 314.521 56.125 314.188 54.125C313.896 52.0833 313.375 50.3542 312.625 48.9375C311.875 47.4792 310.958 46.3542 309.875 45.5625C308.833 44.7708 307.75 44.3333 306.625 44.25C304.667 44.125 302.958 44.6458 301.5 45.8125C300.042 46.9375 298.812 48.4167 297.812 50.25C296.812 52.0833 296 54.1458 295.375 56.4375C294.792 58.7292 294.354 60.9792 294.062 63.1875ZM327.125 40.1875C328.458 40.2292 329.625 40.25 330.625 40.25C331.625 40.2083 332.438 40.1875 333.062 40.1875H334.875C335.333 40.1458 335.896 40.125 336.562 40.125C337.146 40.125 337.854 40.125 338.688 40.125C339.521 40.125 340.479 40.1458 341.562 40.1875C341.896 41.3542 342.271 42.5 342.688 43.625C343.146 44.7083 343.542 45.6875 343.875 46.5625C344.292 47.6042 344.708 48.5833 345.125 49.5C345.542 50.4167 346.042 51.5208 346.625 52.8125C347.125 53.8958 347.729 55.2292 348.438 56.8125C349.146 58.3542 349.979 60.125 350.938 62.125C351.396 60.8333 351.812 59.6458 352.188 58.5625C352.604 57.4792 352.958 56.5417 353.25 55.75C353.583 54.8333 353.854 54 354.062 53.25C354.271 52.5 354.5 51.5833 354.75 50.5C354.958 49.5833 355.188 48.4792 355.438 47.1875C355.729 45.8958 356.021 44.3958 356.312 42.6875C357.521 42.6875 358.604 42.6875 359.562 42.6875C360.521 42.6875 361.354 42.6667 362.062 42.625C362.854 42.625 363.562 42.6042 364.188 42.5625C364.854 42.5625 365.75 42.5208 366.875 42.4375C367.833 42.3542 369.104 42.2917 370.688 42.25C372.312 42.1667 374.312 42.0625 376.688 41.9375C375.812 42.5625 375.104 43.1875 374.562 43.8125C374.062 44.3958 373.667 44.9167 373.375 45.375C373.042 45.9167 372.833 46.4375 372.75 46.9375C372.667 47.3542 372.583 48.3125 372.5 49.8125C372.458 51.3125 372.396 53.1042 372.312 55.1875C372.271 57.2292 372.229 59.4167 372.188 61.75C372.188 64.0833 372.208 66.2917 372.25 68.375C372.292 70.4583 372.354 72.2708 372.438 73.8125C372.562 75.3125 372.729 76.2708 372.938 76.6875C373.229 77.1875 373.625 77.7708 374.125 78.4375C374.583 79.0208 375.167 79.6875 375.875 80.4375C376.625 81.1875 377.604 82.0208 378.812 82.9375C376.896 83.0208 375.292 83.0833 374 83.125C372.75 83.1667 371.708 83.2083 370.875 83.25C369.917 83.2917 369.146 83.3125 368.562 83.3125C367.938 83.3125 367.083 83.3333 366 83.375C365.042 83.4167 363.771 83.4792 362.188 83.5625C360.604 83.6042 358.562 83.6875 356.062 83.8125C356.646 83.1458 357.188 82.4792 357.688 81.8125C358.188 81.1458 358.604 80.5417 358.938 80C359.354 79.375 359.708 78.7708 360 78.1875C360.292 77.3958 360.521 75.9583 360.688 73.875C360.854 72.0833 360.979 69.5208 361.062 66.1875C361.146 62.8125 361.146 58.2917 361.062 52.625C360.271 53.9167 359.562 55.2083 358.938 56.5C358.354 57.75 357.833 58.8958 357.375 59.9375C356.875 61.1458 356.417 62.3125 356 63.4375C355.583 64.6042 355.146 65.8958 354.688 67.3125C354.271 68.5208 353.771 69.9583 353.188 71.625C352.646 73.2917 352.021 75.125 351.312 77.125L348.938 77.25C348.604 75.5833 348.271 74.0833 347.938 72.75C347.604 71.375 347.271 70.2083 346.938 69.25C346.562 68.125 346.188 67.125 345.812 66.25C345.396 65.375 344.938 64.3958 344.438 63.3125C343.979 62.3958 343.417 61.3125 342.75 60.0625C342.125 58.8125 341.396 57.4167 340.562 55.875C340.146 60.125 339.896 63.5833 339.812 66.25C339.729 68.875 339.729 70.9167 339.812 72.375C339.896 74.125 340.021 75.3958 340.188 76.1875C340.438 76.8958 340.833 77.6875 341.375 78.5625C341.833 79.3125 342.458 80.2083 343.25 81.25C344.083 82.25 345.146 83.375 346.438 84.625C345.521 84.625 344.562 84.625 343.562 84.625C342.562 84.625 341.646 84.6458 340.812 84.6875C339.812 84.7292 338.833 84.75 337.875 84.75C336.875 84.7917 335.708 84.8542 334.375 84.9375C333.208 85.0208 331.812 85.1042 330.188 85.1875C328.562 85.2708 326.688 85.4167 324.562 85.625C325.479 85.0417 326.229 84.4792 326.812 83.9375C327.396 83.3542 327.854 82.8333 328.188 82.375C328.604 81.8333 328.917 81.2917 329.125 80.75C329.25 80.4167 329.354 79.6875 329.438 78.5625C329.562 77.4375 329.667 76.0625 329.75 74.4375C329.875 72.8125 329.958 71 330 69C330.083 67 330.146 64.9792 330.188 62.9375C330.271 60.8542 330.333 58.8333 330.375 56.875C330.417 54.875 330.438 53.0833 330.438 51.5C330.479 49.875 330.5 48.5208 330.5 47.4375C330.5 46.3542 330.5 45.6667 330.5 45.375C330.375 44.75 330.188 44.125 329.938 43.5C329.729 42.9583 329.396 42.3958 328.938 41.8125C328.479 41.2292 327.875 40.6875 327.125 40.1875ZM378.5 41.9375C379.917 42.1042 381.104 42.2292 382.062 42.3125C383.062 42.3542 383.875 42.4167 384.5 42.5C385.25 42.5833 385.833 42.625 386.25 42.625C386.708 42.6667 387.396 42.6458 388.312 42.5625C389.104 42.4792 390.167 42.375 391.5 42.25C392.875 42.125 394.625 41.9375 396.75 41.6875C395.792 42.5208 395.021 43.3333 394.438 44.125C393.896 44.875 393.479 45.5417 393.188 46.125C392.812 46.8333 392.583 47.5 392.5 48.125C392.333 49.125 392.188 50.5 392.062 52.25C391.979 53.9583 391.896 55.8333 391.812 57.875C391.729 59.9167 391.688 62.0208 391.688 64.1875C391.688 66.3542 391.708 68.4167 391.75 70.375C391.833 72.2917 391.958 74 392.125 75.5C392.333 77 392.583 78.0833 392.875 78.75C393.292 79.5 393.729 80.25 394.188 81C394.604 81.625 395.104 82.2708 395.688 82.9375C396.271 83.6042 396.938 84.1458 397.688 84.5625C395.229 84.4375 393.271 84.375 391.812 84.375H389.562C388.896 84.375 388.042 84.4167 387 84.5C386.125 84.5833 385.021 84.6667 383.688 84.75C382.354 84.8333 380.75 84.9583 378.875 85.125C379.833 84.0833 380.583 83.0833 381.125 82.125C381.667 81.1667 382.104 80.3333 382.438 79.625C382.812 78.7917 383.062 78 383.188 77.25C383.354 76.1667 383.479 74.8333 383.562 73.25C383.688 71.625 383.771 69.8958 383.812 68.0625C383.854 66.1875 383.854 64.2917 383.812 62.375C383.812 60.4167 383.771 58.5417 383.688 56.75C383.604 54.9583 383.479 53.3333 383.312 51.875C383.188 50.4167 383.021 49.25 382.812 48.375C382.688 47.8333 382.438 47.2292 382.062 46.5625C381.729 45.9792 381.271 45.3125 380.688 44.5625C380.146 43.7708 379.417 42.8958 378.5 41.9375ZM420.188 37.875C422.438 37.9583 424.708 38.375 427 39.125C429.333 39.8333 431.479 41 433.438 42.625C435.396 44.2083 437.062 46.2708 438.438 48.8125C439.812 51.3125 440.667 54.375 441 58C441.292 60.9583 440.917 63.8958 439.875 66.8125C438.875 69.6875 437.479 72.3333 435.688 74.75C433.896 77.1667 431.833 79.2292 429.5 80.9375C427.167 82.6042 424.833 83.7083 422.5 84.25C421.083 84.5833 419.521 84.625 417.812 84.375C416.146 84.0833 414.438 83.5625 412.688 82.8125C410.979 82.0208 409.292 81.0208 407.625 79.8125C406 78.6042 404.521 77.2292 403.188 75.6875C401.854 74.1042 400.729 72.3958 399.812 70.5625C398.938 68.7292 398.396 66.8125 398.188 64.8125C397.979 63.1458 397.958 61.3125 398.125 59.3125C398.333 57.2708 398.729 55.25 399.312 53.25C399.938 51.2083 400.792 49.25 401.875 47.375C403 45.4583 404.417 43.7917 406.125 42.375C407.833 40.9167 409.833 39.7917 412.125 39C414.458 38.1667 417.146 37.7917 420.188 37.875ZM409 63.1875C408.417 67.6458 408.833 71.2292 410.25 73.9375C411.708 76.6458 413.896 78.2917 416.812 78.875C418.229 79.1667 419.583 78.875 420.875 78C422.208 77.0833 423.417 75.7708 424.5 74.0625C425.583 72.3542 426.521 70.3542 427.312 68.0625C428.104 65.7708 428.688 63.375 429.062 60.875C429.438 58.375 429.458 56.125 429.125 54.125C428.833 52.0833 428.312 50.3542 427.562 48.9375C426.812 47.4792 425.896 46.3542 424.812 45.5625C423.771 44.7708 422.688 44.3333 421.562 44.25C419.604 44.125 417.896 44.6458 416.438 45.8125C414.979 46.9375 413.75 48.4167 412.75 50.25C411.75 52.0833 410.938 54.1458 410.312 56.4375C409.729 58.7292 409.292 60.9792 409 63.1875Z"
    fill="#0051FF" />
  <path
    d="M11.2969 5.01562C11.7917 5.13281 12.2344 5.22396 12.625 5.28906C13.0286 5.34115 13.3672 5.38021 13.6406 5.40625C13.9661 5.44531 14.2526 5.45833 14.5 5.44531C14.8125 5.43229 15.2031 5.38672 15.6719 5.30859C16.1406 5.23047 16.6354 5.15234 17.1562 5.07422C17.6771 4.99609 18.1914 4.93099 18.6992 4.87891C19.207 4.82682 19.6497 4.82031 20.0273 4.85938C20.4049 4.89844 20.8021 4.98958 21.2188 5.13281C21.6354 5.26302 22.026 5.44531 22.3906 5.67969C22.7552 5.90104 23.0677 6.17448 23.3281 6.5C23.6016 6.82552 23.7708 7.20312 23.8359 7.63281C23.901 8.04948 23.862 8.4987 23.7188 8.98047C23.5755 9.44922 23.3477 9.91146 23.0352 10.3672C22.7227 10.8099 22.332 11.2201 21.8633 11.5977C21.3945 11.9753 20.8737 12.2812 20.3008 12.5156C19.8451 12.6849 19.3503 12.8151 18.8164 12.9062C18.3607 12.9844 17.8268 13.0365 17.2148 13.0625C16.6159 13.0755 15.9779 13.0104 15.3008 12.8672C15.2096 13.2448 15.1576 13.5964 15.1445 13.9219C15.1445 14.2344 15.1576 14.5143 15.1836 14.7617C15.2227 15.0482 15.2747 15.3086 15.3398 15.543C15.418 15.7773 15.5156 16.0508 15.6328 16.3633C15.737 16.6237 15.8542 16.9427 15.9844 17.3203C16.1276 17.6849 16.2969 18.0951 16.4922 18.5508C16.2578 18.5508 16.0299 18.5573 15.8086 18.5703C15.5872 18.5703 15.3854 18.5768 15.2031 18.5898C14.9948 18.6029 14.7995 18.6159 14.6172 18.6289C14.4089 18.6419 14.1745 18.668 13.9141 18.707C13.6927 18.7331 13.4128 18.7721 13.0742 18.8242C12.7487 18.8763 12.3776 18.9414 11.9609 19.0195C12.2344 18.6289 12.4492 18.2708 12.6055 17.9453C12.7747 17.6068 12.8984 17.3138 12.9766 17.0664C13.0677 16.7799 13.1263 16.5195 13.1523 16.2852C13.1654 16.0898 13.1654 15.7448 13.1523 15.25C13.1523 14.7552 13.1458 14.1823 13.1328 13.5312C13.1198 12.8802 13.1003 12.1966 13.0742 11.4805C13.0482 10.7643 13.0156 10.0938 12.9766 9.46875C12.9375 8.83073 12.8919 8.28385 12.8398 7.82812C12.8008 7.3724 12.7617 7.07292 12.7227 6.92969C12.6706 6.76042 12.5794 6.57812 12.4492 6.38281C12.3451 6.21354 12.1953 6.01823 12 5.79688C11.8177 5.5625 11.5833 5.30208 11.2969 5.01562ZM15.3398 8.86328C15.3268 8.99349 15.3203 9.13021 15.3203 9.27344C15.3203 9.54688 15.3398 9.89844 15.3789 10.3281C15.4701 10.5495 15.5807 10.7318 15.7109 10.875C15.8542 11.0182 16.0039 11.1289 16.1602 11.207C16.3294 11.2852 16.4987 11.3372 16.668 11.3633C16.8372 11.3893 17.0065 11.4023 17.1758 11.4023C17.5664 11.3893 17.9766 11.2982 18.4062 11.1289C18.9792 10.8815 19.3828 10.5299 19.6172 10.0742C19.8516 9.61849 19.9753 9.14974 19.9883 8.66797C20.0013 8.1862 19.9167 7.74349 19.7344 7.33984C19.5651 6.9362 19.3568 6.66276 19.1094 6.51953C18.901 6.42839 18.6341 6.38932 18.3086 6.40234C18.0221 6.41536 17.6641 6.48698 17.2344 6.61719C16.8047 6.7474 16.2773 6.98177 15.6523 7.32031C15.5872 7.55469 15.5352 7.76302 15.4961 7.94531C15.457 8.1276 15.4245 8.29036 15.3984 8.43359C15.3724 8.58984 15.3529 8.73307 15.3398 8.86328ZM27.7812 10.25C28.1198 10.25 28.4714 10.3151 28.8359 10.4453C29.2005 10.5625 29.5521 10.7188 29.8906 10.9141C30.2292 11.0964 30.5352 11.2982 30.8086 11.5195C31.0951 11.7279 31.3294 11.9297 31.5117 12.125C31.8372 12.4766 32.0586 12.9518 32.1758 13.5508C32.306 14.1367 32.332 14.7422 32.2539 15.3672C32.1758 15.9792 31.9935 16.5586 31.707 17.1055C31.4206 17.6523 31.0234 18.056 30.5156 18.3164C30.151 18.4987 29.793 18.6419 29.4414 18.7461C29.0898 18.8503 28.7513 18.9284 28.4258 18.9805C28.1003 19.0326 27.7943 19.0586 27.5078 19.0586C27.2214 19.0586 26.974 19.0521 26.7656 19.0391C26.375 19.013 25.9648 18.8763 25.5352 18.6289C25.1185 18.3815 24.7214 18.0755 24.3438 17.7109C23.9792 17.3464 23.6667 16.9492 23.4062 16.5195C23.1458 16.0768 22.9896 15.6602 22.9375 15.2695C22.8594 14.7357 22.8464 14.1758 22.8984 13.5898C22.9505 13.0039 23.1393 12.4635 23.4648 11.9688C23.8034 11.474 24.3112 11.0638 24.9883 10.7383C25.6784 10.4128 26.6094 10.25 27.7812 10.25ZM27.1367 17.8281C27.2799 17.8542 27.4753 17.8216 27.7227 17.7305C27.9701 17.6263 28.2109 17.4635 28.4453 17.2422C28.6927 17.0208 28.9076 16.7409 29.0898 16.4023C29.2852 16.0508 29.4023 15.6276 29.4414 15.1328C29.4805 14.651 29.4805 14.2083 29.4414 13.8047C29.4154 13.401 29.3568 13.0495 29.2656 12.75C29.1745 12.4375 29.0703 12.1836 28.9531 11.9883C28.8359 11.793 28.7122 11.6562 28.582 11.5781C28.3607 11.4609 28.0938 11.3698 27.7812 11.3047C27.4688 11.2266 27.2018 11.2396 26.9805 11.3438C26.8763 11.3958 26.7461 11.5065 26.5898 11.6758C26.4336 11.8451 26.2773 12.0599 26.1211 12.3203C25.9648 12.5677 25.8216 12.8542 25.6914 13.1797C25.5742 13.5052 25.4896 13.8438 25.4375 14.1953C25.3854 14.5469 25.3724 14.9245 25.3984 15.3281C25.4375 15.7318 25.5221 16.1159 25.6523 16.4805C25.7826 16.832 25.9648 17.138 26.1992 17.3984C26.4466 17.6458 26.7591 17.7891 27.1367 17.8281ZM32 9.99609C32.3906 10.0221 32.7357 10.0417 33.0352 10.0547C33.3477 10.0677 33.6081 10.0807 33.8164 10.0938C34.0508 10.1068 34.2591 10.1133 34.4414 10.1133C34.6237 10.1133 34.832 10.1068 35.0664 10.0938C35.2747 10.0807 35.5286 10.0612 35.8281 10.0352C36.1406 9.99609 36.4987 9.94401 36.9023 9.87891C36.5898 10.0742 36.3359 10.2565 36.1406 10.4258C35.9583 10.582 35.8151 10.7253 35.7109 10.8555C35.5938 10.9987 35.5156 11.1289 35.4766 11.2461C35.4505 11.3503 35.4245 11.5586 35.3984 11.8711C35.3854 12.1706 35.3724 12.5221 35.3594 12.9258C35.3594 13.3164 35.3659 13.7331 35.3789 14.1758C35.3919 14.6185 35.4115 15.0221 35.4375 15.3867C35.4635 15.7383 35.5026 16.0378 35.5547 16.2852C35.6068 16.5195 35.6719 16.6302 35.75 16.6172C35.8542 16.526 36.0234 16.2201 36.2578 15.6992C36.349 15.4779 36.4596 15.1979 36.5898 14.8594C36.7201 14.5078 36.8698 14.0846 37.0391 13.5898C37.2083 13.082 37.3971 12.4896 37.6055 11.8125C37.8268 11.1354 38.0742 10.3477 38.3477 9.44922H40.0469C40.099 10.3346 40.1576 11.1094 40.2227 11.7734C40.2878 12.4375 40.3529 13.0169 40.418 13.5117C40.4831 13.9935 40.5417 14.4036 40.5938 14.7422C40.6589 15.0677 40.724 15.3346 40.7891 15.543C40.9323 16.0378 41.0755 16.3047 41.2188 16.3438C41.3359 16.3177 41.4596 16.168 41.5898 15.8945C41.7331 15.6211 41.8633 15.2826 41.9805 14.8789C42.1107 14.4753 42.2279 14.0391 42.332 13.5703C42.4362 13.0885 42.5273 12.6393 42.6055 12.2227C42.6836 11.806 42.7357 11.4414 42.7617 11.1289C42.7878 10.8164 42.7878 10.6211 42.7617 10.543C42.7227 10.4648 42.6445 10.3542 42.5273 10.2109C42.4232 10.0938 42.2799 9.95052 42.0977 9.78125C41.9284 9.61198 41.694 9.41016 41.3945 9.17578C41.7591 9.24089 42.1042 9.28646 42.4297 9.3125C42.7682 9.32552 43.0677 9.33854 43.3281 9.35156C43.6276 9.36458 43.901 9.36458 44.1484 9.35156C44.4089 9.35156 44.7279 9.34505 45.1055 9.33203C45.431 9.31901 45.8346 9.3125 46.3164 9.3125C46.8112 9.3125 47.3906 9.29948 48.0547 9.27344C47.4688 9.45573 47 9.63151 46.6484 9.80078C46.3099 9.95703 46.0495 10.1068 45.8672 10.25C45.6458 10.4062 45.4896 10.556 45.3984 10.6992C45.3073 10.8945 45.1641 11.3047 44.9688 11.9297C44.8906 12.1901 44.793 12.5156 44.6758 12.9062C44.5586 13.2839 44.4219 13.7331 44.2656 14.2539C44.1094 14.7747 43.9336 15.3802 43.7383 16.0703C43.543 16.7474 43.3216 17.5221 43.0742 18.3945C42.931 18.3685 42.7812 18.3555 42.625 18.3555C42.4818 18.3424 42.3451 18.3359 42.2148 18.3359H41.7656C41.6094 18.349 41.4401 18.362 41.2578 18.375C41.1016 18.388 40.9193 18.4076 40.7109 18.4336C40.5026 18.4596 40.2747 18.4922 40.0273 18.5312L38.8555 13.7852L36.9414 18.5312L34.7539 18.4727C34.4805 17.0013 34.2591 15.8294 34.0898 14.957C33.9336 14.0716 33.8034 13.3945 33.6992 12.9258C33.582 12.3789 33.5039 11.9948 33.4648 11.7734C33.3997 11.5391 33.3021 11.3112 33.1719 11.0898C33.0677 10.9076 32.918 10.7188 32.7227 10.5234C32.5273 10.3151 32.2865 10.1393 32 9.99609ZM51.1211 15.8555C51.4857 15.8555 51.8242 15.8164 52.1367 15.7383C52.3971 15.6732 52.6445 15.569 52.8789 15.4258C53.1263 15.2695 53.2891 15.0417 53.3672 14.7422C53.6276 14.7943 53.849 14.8398 54.0312 14.8789C54.2135 14.9049 54.3698 14.931 54.5 14.957C54.6432 14.9961 54.7669 15.0221 54.8711 15.0352C54.9753 15.0612 55.099 15.0872 55.2422 15.1133C55.3724 15.1393 55.5286 15.1719 55.7109 15.2109C55.9062 15.237 56.1341 15.276 56.3945 15.3281C56.1992 15.3021 55.9974 15.3216 55.7891 15.3867C55.5938 15.4518 55.4049 15.5234 55.2227 15.6016C55.0143 15.6927 54.819 15.8034 54.6367 15.9336C54.5195 16.0117 54.3828 16.1289 54.2266 16.2852C54.0833 16.4414 53.875 16.5911 53.6016 16.7344C53.3281 16.8776 52.9635 17.0013 52.5078 17.1055C52.0651 17.1966 51.4922 17.2292 50.7891 17.2031C49.9427 17.1771 49.2331 17.0273 48.6602 16.7539C48.0872 16.4674 47.625 16.1224 47.2734 15.7188C46.9219 15.3021 46.668 14.8529 46.5117 14.3711C46.3555 13.8893 46.2708 13.4401 46.2578 13.0234C46.2448 12.6068 46.3685 12.1706 46.6289 11.7148C46.8893 11.2591 47.2539 10.8424 47.7227 10.4648C48.2044 10.0872 48.7839 9.78125 49.4609 9.54688C50.138 9.29948 50.8802 9.17578 51.6875 9.17578C52.1562 9.17578 52.5859 9.23438 52.9766 9.35156C53.3802 9.45573 53.7448 9.59896 54.0703 9.78125C54.4089 9.96354 54.7018 10.1719 54.9492 10.4062C55.1966 10.6276 55.4049 10.8555 55.5742 11.0898C55.7435 11.3372 55.8867 11.5977 56.0039 11.8711C56.1081 12.1055 56.1927 12.3724 56.2578 12.6719C56.3229 12.9714 56.3424 13.2773 56.3164 13.5898C55.3268 13.6159 54.526 13.6354 53.9141 13.6484C53.3151 13.6615 52.8464 13.668 52.5078 13.668H51.6289H50.9648C50.7305 13.668 50.4245 13.6745 50.0469 13.6875C49.6693 13.7005 49.207 13.7201 48.6602 13.7461C48.7253 14.2669 48.888 14.6706 49.1484 14.957C49.4219 15.2305 49.7083 15.4388 50.0078 15.582C50.3464 15.7383 50.7174 15.8294 51.1211 15.8555ZM49.3633 12.3398C49.7799 12.3659 50.125 12.3854 50.3984 12.3984C50.6849 12.4115 50.9193 12.4245 51.1016 12.4375C51.2969 12.4505 51.4531 12.457 51.5703 12.457H52.0586C52.3841 12.457 52.9896 12.4375 53.875 12.3984C53.8359 11.8255 53.7122 11.3893 53.5039 11.0898C53.3086 10.7904 53.1003 10.569 52.8789 10.4258C52.6185 10.2695 52.332 10.1784 52.0195 10.1523C51.1732 10.1654 50.5417 10.3411 50.125 10.6797C49.7214 11.0182 49.4674 11.5716 49.3633 12.3398ZM56.9023 9.64453C57.1497 9.65755 57.3711 9.66406 57.5664 9.66406C57.7747 9.65104 57.9505 9.63802 58.0938 9.625C58.263 9.61198 58.4128 9.59896 58.543 9.58594C58.7383 9.5599 58.9401 9.52734 59.1484 9.48828C59.3307 9.46224 59.5195 9.42969 59.7148 9.39062C59.9232 9.33854 60.125 9.27995 60.3203 9.21484C60.2422 9.41016 60.1771 9.57943 60.125 9.72266C60.0729 9.86589 60.0339 9.98958 60.0078 10.0938C59.9688 10.2109 59.9492 10.3086 59.9492 10.3867C59.9362 10.4779 59.9297 10.5885 59.9297 10.7188C59.9167 10.9401 59.9167 11.2982 59.9297 11.793C60.6068 11.207 61.1732 10.7513 61.6289 10.4258C62.0977 10.1003 62.4688 9.84635 62.7422 9.66406C63.0677 9.45573 63.3216 9.31901 63.5039 9.25391C63.9857 9.17578 64.4089 9.28646 64.7734 9.58594C64.9297 9.71615 65.0794 9.89193 65.2227 10.1133C65.3659 10.3216 65.4896 10.6016 65.5938 10.9531C65.6979 11.3047 65.776 11.7279 65.8281 12.2227C65.8802 12.7044 65.8867 13.2839 65.8477 13.9609C65.5742 13.987 65.3268 14.013 65.1055 14.0391C64.8971 14.0651 64.7214 14.0846 64.5781 14.0977C64.4089 14.1237 64.2526 14.1367 64.1094 14.1367L63.582 14.1953C63.3997 14.2214 63.1719 14.2474 62.8984 14.2734C62.638 14.2865 62.319 14.3125 61.9414 14.3516C62.4883 13.9089 62.8398 13.5247 62.9961 13.1992C63.1654 12.8607 63.237 12.5807 63.2109 12.3594C63.1849 12.112 63.0677 11.8971 62.8594 11.7148C62.612 11.5716 62.3451 11.5195 62.0586 11.5586C61.8112 11.5846 61.5247 11.6953 61.1992 11.8906C60.8737 12.0859 60.5286 12.4505 60.1641 12.9844C60.1901 13.8177 60.2161 14.5078 60.2422 15.0547C60.2812 15.6016 60.3138 16.0443 60.3398 16.3828C60.3789 16.7734 60.4115 17.0794 60.4375 17.3008C60.4766 17.4961 60.5547 17.7044 60.6719 17.9258C60.763 18.1081 60.8932 18.3099 61.0625 18.5312C61.2318 18.7526 61.4531 18.974 61.7266 19.1953C61.1536 19.1693 60.6849 19.1693 60.3203 19.1953C60.099 19.2083 59.9036 19.2214 59.7344 19.2344C59.5521 19.2604 59.3568 19.2865 59.1484 19.3125C58.9661 19.3385 58.7513 19.3646 58.5039 19.3906C58.2695 19.4297 58.0091 19.4688 57.7227 19.5078C57.8268 19.3646 57.9115 19.1953 57.9766 19C58.0417 18.8177 58.0938 18.6419 58.1328 18.4727C58.1849 18.2773 58.224 18.0755 58.25 17.8672C58.263 17.6849 58.2695 17.4115 58.2695 17.0469C58.2826 16.6823 58.276 16.2721 58.25 15.8164C58.237 15.3477 58.2174 14.8659 58.1914 14.3711C58.1654 13.8633 58.1328 13.388 58.0938 12.9453C58.0547 12.5026 58.0091 12.1185 57.957 11.793C57.918 11.4544 57.8724 11.2201 57.8203 11.0898C57.7552 10.9336 57.6771 10.7773 57.5859 10.6211C57.5078 10.4779 57.4102 10.3281 57.293 10.1719C57.1758 10.0026 57.0456 9.82682 56.9023 9.64453ZM71.7461 15.8555C72.1107 15.8555 72.4492 15.8164 72.7617 15.7383C73.0221 15.6732 73.2695 15.569 73.5039 15.4258C73.7513 15.2695 73.9141 15.0417 73.9922 14.7422C74.2526 14.7943 74.474 14.8398 74.6562 14.8789C74.8385 14.9049 74.9948 14.931 75.125 14.957C75.2682 14.9961 75.3919 15.0221 75.4961 15.0352C75.6003 15.0612 75.724 15.0872 75.8672 15.1133C75.9974 15.1393 76.1536 15.1719 76.3359 15.2109C76.5312 15.237 76.7591 15.276 77.0195 15.3281C76.8242 15.3021 76.6224 15.3216 76.4141 15.3867C76.2188 15.4518 76.0299 15.5234 75.8477 15.6016C75.6393 15.6927 75.444 15.8034 75.2617 15.9336C75.1445 16.0117 75.0078 16.1289 74.8516 16.2852C74.7083 16.4414 74.5 16.5911 74.2266 16.7344C73.9531 16.8776 73.5885 17.0013 73.1328 17.1055C72.6901 17.1966 72.1172 17.2292 71.4141 17.2031C70.5677 17.1771 69.8581 17.0273 69.2852 16.7539C68.7122 16.4674 68.25 16.1224 67.8984 15.7188C67.5469 15.3021 67.293 14.8529 67.1367 14.3711C66.9805 13.8893 66.8958 13.4401 66.8828 13.0234C66.8698 12.6068 66.9935 12.1706 67.2539 11.7148C67.5143 11.2591 67.8789 10.8424 68.3477 10.4648C68.8294 10.0872 69.4089 9.78125 70.0859 9.54688C70.763 9.29948 71.5052 9.17578 72.3125 9.17578C72.7812 9.17578 73.2109 9.23438 73.6016 9.35156C74.0052 9.45573 74.3698 9.59896 74.6953 9.78125C75.0339 9.96354 75.3268 10.1719 75.5742 10.4062C75.8216 10.6276 76.0299 10.8555 76.1992 11.0898C76.3685 11.3372 76.5117 11.5977 76.6289 11.8711C76.7331 12.1055 76.8177 12.3724 76.8828 12.6719C76.9479 12.9714 76.9674 13.2773 76.9414 13.5898C75.9518 13.6159 75.151 13.6354 74.5391 13.6484C73.9401 13.6615 73.4714 13.668 73.1328 13.668H72.2539H71.5898C71.3555 13.668 71.0495 13.6745 70.6719 13.6875C70.2943 13.7005 69.832 13.7201 69.2852 13.7461C69.3503 14.2669 69.513 14.6706 69.7734 14.957C70.0469 15.2305 70.3333 15.4388 70.6328 15.582C70.9714 15.7383 71.3424 15.8294 71.7461 15.8555ZM69.9883 12.3398C70.4049 12.3659 70.75 12.3854 71.0234 12.3984C71.3099 12.4115 71.5443 12.4245 71.7266 12.4375C71.9219 12.4505 72.0781 12.457 72.1953 12.457H72.6836C73.0091 12.457 73.6146 12.4375 74.5 12.3984C74.4609 11.8255 74.3372 11.3893 74.1289 11.0898C73.9336 10.7904 73.7253 10.569 73.5039 10.4258C73.2435 10.2695 72.957 10.1784 72.6445 10.1523C71.7982 10.1654 71.1667 10.3411 70.75 10.6797C70.3464 11.0182 70.0924 11.5716 69.9883 12.3398ZM87.3125 4.03906C87.5599 4.05208 87.8268 4.05859 88.1133 4.05859C88.3607 4.05859 88.6406 4.0651 88.9531 4.07812C89.2786 4.07812 89.6172 4.0651 89.9688 4.03906C89.6562 4.18229 89.3828 4.39062 89.1484 4.66406C88.9141 4.9375 88.7253 5.21094 88.582 5.48438C88.3997 5.8099 88.25 6.14844 88.1328 6.5C88.0677 6.70833 88.0156 7.07943 87.9766 7.61328C87.9375 8.13411 87.9049 8.74609 87.8789 9.44922C87.8659 10.1523 87.8594 10.8945 87.8594 11.6758C87.8594 12.457 87.8659 13.2057 87.8789 13.9219C87.8919 14.625 87.9115 15.25 87.9375 15.7969C87.9635 16.3438 87.9961 16.7279 88.0352 16.9492C88.0872 17.2096 88.1523 17.457 88.2305 17.6914C88.2956 17.8997 88.3802 18.1146 88.4844 18.3359C88.5885 18.5443 88.7188 18.7135 88.875 18.8438L86.8828 19.7422C86.7786 19.599 86.694 19.4492 86.6289 19.293C86.5638 19.1497 86.5117 19.0195 86.4727 18.9023C86.4206 18.7591 86.388 18.6289 86.375 18.5117C86.349 18.3555 86.3229 18.1862 86.2969 18.0039C86.2708 17.8086 86.2383 17.6263 86.1992 17.457C86.1732 17.2747 86.1536 17.125 86.1406 17.0078C86.1276 16.8906 86.1276 16.819 86.1406 16.793C86.1536 16.7669 86.0755 16.8841 85.9062 17.1445C85.737 17.3919 85.4831 17.6849 85.1445 18.0234C84.819 18.349 84.4154 18.668 83.9336 18.9805C83.4518 19.2799 82.9115 19.4688 82.3125 19.5469C81.7005 19.625 81.1341 19.5078 80.6133 19.1953C80.1055 18.8828 79.6693 18.4466 79.3047 17.8867C78.9401 17.3138 78.6602 16.6562 78.4648 15.9141C78.2826 15.1589 78.2109 14.3906 78.25 13.6094C78.276 13.0885 78.3932 12.6263 78.6016 12.2227C78.8099 11.806 79.0703 11.4479 79.3828 11.1484C79.7083 10.8359 80.0599 10.5755 80.4375 10.3672C80.8281 10.1458 81.2057 9.96354 81.5703 9.82031C81.9479 9.67708 82.2995 9.57292 82.625 9.50781C82.9505 9.44271 83.2109 9.39714 83.4062 9.37109C83.6406 9.35807 83.9076 9.39714 84.207 9.48828C84.4674 9.56641 84.7669 9.69661 85.1055 9.87891C85.457 10.0612 85.8477 10.3346 86.2773 10.6992C86.1992 9.39714 86.1276 8.35547 86.0625 7.57422C85.9974 6.77995 85.9323 6.17448 85.8672 5.75781C85.8021 5.26302 85.7435 4.92448 85.6914 4.74219C85.6263 4.61198 85.5417 4.48177 85.4375 4.35156C85.3464 4.2474 85.2292 4.14323 85.0859 4.03906C84.9557 3.92188 84.7995 3.83073 84.6172 3.76562C84.9557 3.83073 85.2812 3.8763 85.5938 3.90234C85.9062 3.92839 86.1927 3.95443 86.4531 3.98047C86.7526 4.00651 87.0391 4.02604 87.3125 4.03906ZM82.4102 11.3242C82.1628 11.4154 81.9609 11.5716 81.8047 11.793C81.6615 12.0143 81.5443 12.2812 81.4531 12.5938C81.362 12.8932 81.2969 13.2188 81.2578 13.5703C81.2318 13.9089 81.2122 14.2409 81.1992 14.5664C81.1992 14.8789 81.1992 15.1654 81.1992 15.4258C81.1992 15.6862 81.1992 15.8815 81.1992 16.0117C81.1992 16.0898 81.2122 16.2331 81.2383 16.4414C81.2773 16.6367 81.3555 16.8451 81.4727 17.0664C81.5898 17.2747 81.7526 17.4635 81.9609 17.6328C82.1823 17.8021 82.4753 17.8867 82.8398 17.8867C83.1393 17.8607 83.4583 17.7565 83.7969 17.5742C84.0964 17.418 84.4349 17.1706 84.8125 16.832C85.2031 16.4805 85.6198 15.9792 86.0625 15.3281C86.0365 14.9115 86.0169 14.5664 86.0039 14.293C86.0039 14.0195 85.9974 13.7982 85.9844 13.6289C85.9714 13.4336 85.9648 13.2773 85.9648 13.1602V12.8672C85.9648 12.7891 85.9648 12.7044 85.9648 12.6133C85.9648 12.5221 85.9714 12.4375 85.9844 12.3594C85.6198 12.099 85.2943 11.8776 85.0078 11.6953C84.7344 11.5 84.4609 11.3568 84.1875 11.2656C83.9271 11.1615 83.6536 11.1159 83.3672 11.1289C83.0938 11.1289 82.7747 11.194 82.4102 11.3242ZM95.3789 5.03516C95.7956 5.13932 96.1927 5.21745 96.5703 5.26953C96.9479 5.32161 97.2799 5.36068 97.5664 5.38672C97.9049 5.42578 98.2174 5.4388 98.5039 5.42578C98.8685 5.42578 99.3242 5.39323 99.8711 5.32812C100.431 5.26302 101.004 5.20443 101.59 5.15234C102.176 5.08724 102.736 5.04818 103.27 5.03516C103.816 5.00911 104.259 5.04167 104.598 5.13281C104.936 5.21094 105.281 5.33464 105.633 5.50391C105.997 5.66016 106.329 5.86198 106.629 6.10938C106.928 6.34375 107.176 6.6237 107.371 6.94922C107.566 7.26172 107.677 7.61979 107.703 8.02344C107.69 8.53125 107.573 9.00651 107.352 9.44922C107.169 9.82682 106.863 10.2174 106.434 10.6211C106.004 11.0117 105.385 11.3112 104.578 11.5195C104.982 11.5716 105.327 11.6628 105.613 11.793C105.913 11.9102 106.167 12.0534 106.375 12.2227C106.596 12.3789 106.772 12.5547 106.902 12.75C107.046 12.9453 107.156 13.1406 107.234 13.3359C107.43 13.7917 107.521 14.2995 107.508 14.8594C107.43 15.5885 107.28 16.168 107.059 16.5977C106.85 17.0273 106.609 17.3594 106.336 17.5938C106.062 17.8281 105.783 17.9909 105.496 18.082C105.21 18.1732 104.949 18.2448 104.715 18.2969C104.48 18.349 104.194 18.375 103.855 18.375C103.517 18.375 103.152 18.3685 102.762 18.3555C102.384 18.3294 101.993 18.3099 101.59 18.2969C101.186 18.2708 100.802 18.2708 100.438 18.2969C100.138 18.3229 99.7734 18.349 99.3438 18.375C98.9792 18.401 98.5234 18.4336 97.9766 18.4727C97.4297 18.4987 96.7917 18.5312 96.0625 18.5703C96.2057 18.4661 96.3229 18.349 96.4141 18.2188C96.5182 18.0755 96.6029 17.9518 96.668 17.8477C96.7331 17.7174 96.7917 17.5938 96.8438 17.4766C96.8828 17.3724 96.9154 17.0859 96.9414 16.6172C96.9674 16.1484 96.987 15.5885 97 14.9375C97.013 14.2734 97.0195 13.5638 97.0195 12.8086C97.0326 12.0404 97.026 11.3047 97 10.6016C96.987 9.88542 96.9609 9.25391 96.9219 8.70703C96.8958 8.14714 96.8568 7.74349 96.8047 7.49609C96.7266 7.22266 96.6224 6.94271 96.4922 6.65625C96.388 6.40885 96.2383 6.14193 96.043 5.85547C95.8607 5.56901 95.6393 5.29557 95.3789 5.03516ZM99.5 7.02734C99.5 7.07943 99.5065 7.25521 99.5195 7.55469C99.5326 7.8151 99.5456 8.21875 99.5586 8.76562C99.5846 9.29948 99.6172 10.0612 99.6562 11.0508C99.9818 11.194 100.301 11.2721 100.613 11.2852C100.926 11.2852 101.206 11.2721 101.453 11.2461C101.74 11.207 102.013 11.1419 102.273 11.0508C102.625 10.9076 102.898 10.6732 103.094 10.3477C103.302 10.0221 103.439 9.68359 103.504 9.33203C103.582 8.96745 103.602 8.62891 103.562 8.31641C103.523 7.99089 103.439 7.75651 103.309 7.61328C103.061 7.39193 102.755 7.20964 102.391 7.06641C102.078 6.94922 101.681 6.87109 101.199 6.83203C100.73 6.77995 100.164 6.84505 99.5 7.02734ZM99.4023 16.2852C99.8841 16.5326 100.307 16.6953 100.672 16.7734C101.036 16.8516 101.342 16.8906 101.59 16.8906C101.876 16.8906 102.124 16.8516 102.332 16.7734C102.579 16.6562 102.82 16.5 103.055 16.3047C103.302 16.0964 103.484 15.8555 103.602 15.582C103.732 15.2956 103.784 14.9831 103.758 14.6445C103.732 14.293 103.582 13.9089 103.309 13.4922C103.061 13.1927 102.762 12.9583 102.41 12.7891C102.098 12.6458 101.701 12.5547 101.219 12.5156C100.75 12.4766 100.171 12.5872 99.4805 12.8477L99.4023 16.2852ZM107.605 9.01953C107.866 9.05859 108.1 9.09115 108.309 9.11719C108.504 9.13021 108.68 9.14323 108.836 9.15625C109.005 9.16927 109.168 9.17578 109.324 9.17578C109.467 9.17578 109.65 9.16927 109.871 9.15625C110.053 9.14323 110.288 9.13021 110.574 9.11719C110.874 9.09115 111.225 9.05859 111.629 9.01953C111.603 9.07161 111.551 9.23438 111.473 9.50781C111.395 9.76823 111.316 10.0938 111.238 10.4844C111.16 10.862 111.089 11.2852 111.023 11.7539C110.971 12.2096 110.945 12.6654 110.945 13.1211C110.958 13.5638 111.017 13.987 111.121 14.3906C111.225 14.7812 111.395 15.1003 111.629 15.3477C112.124 15.8555 112.56 16.1615 112.938 16.2656C113.328 16.3698 113.667 16.3568 113.953 16.2266C114.24 16.0964 114.474 15.901 114.656 15.6406C114.839 15.3802 114.969 15.1393 115.047 14.918C115.242 14.319 115.359 13.6875 115.398 13.0234C115.424 12.4505 115.379 11.8125 115.262 11.1094C115.145 10.4062 114.865 9.6901 114.422 8.96094C114.76 8.98698 115.053 9.00651 115.301 9.01953C115.548 9.03255 115.763 9.04557 115.945 9.05859C116.154 9.07161 116.336 9.08464 116.492 9.09766C116.635 9.11068 116.805 9.11068 117 9.09766C117.169 9.09766 117.371 9.09115 117.605 9.07812C117.853 9.05208 118.126 9.02604 118.426 9C118.478 10.276 118.523 11.4154 118.562 12.418C118.602 13.4076 118.628 14.2865 118.641 15.0547C118.667 15.8099 118.68 16.4674 118.68 17.0273C118.68 17.5742 118.68 18.0365 118.68 18.4141C118.667 19.3125 118.628 19.9049 118.562 20.1914C118.458 20.5951 118.27 20.9987 117.996 21.4023C117.736 21.806 117.404 22.1641 117 22.4766C116.596 22.8021 116.128 23.0495 115.594 23.2188C115.073 23.401 114.5 23.4661 113.875 23.4141C113.263 23.362 112.775 23.2773 112.41 23.1602C112.059 23.056 111.779 22.9323 111.57 22.7891C111.375 22.6458 111.232 22.4961 111.141 22.3398C111.062 22.1836 111.004 22.0208 110.965 21.8516C110.926 21.6953 110.887 21.5456 110.848 21.4023C110.809 21.2591 110.73 21.1354 110.613 21.0312C110.47 20.9141 110.32 20.7969 110.164 20.6797C110.021 20.5755 109.865 20.4714 109.695 20.3672C109.539 20.263 109.383 20.1784 109.227 20.1133L113.387 19.8789C113.27 20.0352 113.185 20.1784 113.133 20.3086C113.081 20.4388 113.048 20.5495 113.035 20.6406C113.022 20.7578 113.029 20.8555 113.055 20.9336C113.107 21.0898 113.198 21.2591 113.328 21.4414C113.471 21.6367 113.654 21.7865 113.875 21.8906C114.096 22.0078 114.357 22.0469 114.656 22.0078C114.969 21.9688 115.32 21.806 115.711 21.5195C116.036 21.2721 116.31 20.875 116.531 20.3281C116.714 19.8594 116.857 19.2018 116.961 18.3555C117.065 17.5091 117.046 16.3958 116.902 15.0156C116.668 15.8229 116.349 16.4414 115.945 16.8711C115.542 17.3008 115.138 17.6133 114.734 17.8086C114.266 18.043 113.777 18.1667 113.27 18.1797C112.592 18.1536 112.013 18.069 111.531 17.9258C111.049 17.7695 110.652 17.5612 110.34 17.3008C110.027 17.0404 109.78 16.7344 109.598 16.3828C109.428 16.0182 109.305 15.6146 109.227 15.1719C109.148 14.7292 109.109 14.2865 109.109 13.8438C109.109 13.388 109.109 12.9648 109.109 12.5742C109.122 12.1836 109.129 11.832 109.129 11.5195C109.129 11.194 109.096 10.9336 109.031 10.7383C108.953 10.543 108.849 10.3477 108.719 10.1523C108.615 9.98307 108.471 9.80078 108.289 9.60547C108.094 9.39714 107.866 9.20182 107.605 9.01953Z"
    fill="white" />
</svg>